<svg width="129" height="126" viewBox="0 0 129 126" fill="none" xmlns="http://www.w3.org/2000/svg">
<g clip-path="url(#clip0_8327_185696)">
<path d="M7.43295 72.551C2.98351 65.3746 2.98351 56.2971 7.43294 49.1207L8.08478 48.0694C9.96322 45.0397 11.0856 41.6027 11.3572 38.0483L11.4524 36.8034C12.094 28.4073 17.4242 21.0942 25.2207 17.913L26.4902 17.395C29.7813 16.0521 32.7025 13.9397 35.0087 11.2348L35.9055 10.183C41.3479 3.79983 49.9197 1.02336 58.071 3.00339L59.4871 3.3474C62.9354 4.185 66.534 4.18505 69.9822 3.34753L71.3996 3.00326C79.5514 1.02333 88.1236 3.80046 93.5658 10.1844L94.46 11.2334C96.7666 13.9391 99.6885 16.0522 102.981 17.3953L104.25 17.9133C112.047 21.0943 117.378 28.4076 118.019 36.804L118.114 38.0495C118.386 41.6031 119.508 45.0394 121.386 48.0687L122.039 49.1217C126.487 56.2976 126.486 65.3739 122.038 72.5495L121.386 73.6014C119.508 76.6302 118.386 80.0661 118.114 83.6194L118.018 84.8684C117.376 93.2644 112.045 100.577 104.248 103.757L102.982 104.274C99.689 105.617 96.7663 107.731 94.4593 110.437L93.5657 111.486C88.1236 117.871 79.5509 120.648 71.3986 118.668L69.9822 118.324C66.534 117.487 62.9354 117.487 59.4872 118.324L58.072 118.668C49.9202 120.648 41.3479 117.871 35.9056 111.487L35.0097 110.436C32.7028 107.73 29.7806 105.617 26.4882 104.274L25.2226 103.758C17.425 100.577 12.094 93.2636 11.4522 84.8667L11.3572 83.6233C11.0856 80.0689 9.96321 76.632 8.08478 73.6023L7.43295 72.551Z" fill="url(#paint0_linear_8327_185696)"/>
<mask id="path-2-inside-1_8327_185696" fill="white">
<path d="M94.4683 121.018H-2.85008C-2.93284 121.018 -3 120.951 -3 120.868C-3 120.785 -2.93284 120.718 -2.85008 120.718H94.4676C108.186 120.718 119.348 109.559 119.348 95.844C119.348 82.1284 108.186 70.9698 94.4676 70.9698H35.8055C31.2326 70.9698 27.5124 67.2505 27.5124 62.6786C27.5124 58.1068 31.2326 54.3875 35.8055 54.3875H86.7234C97.8127 54.3875 106.834 45.3679 106.834 34.2811C106.834 23.1944 97.8127 14.1748 86.7234 14.1748H-2.78496C-2.86772 14.1748 -2.93488 14.1077 -2.93488 14.0249C-2.93488 13.9422 -2.86772 13.875 -2.78496 13.875H86.7234C97.9775 13.875 107.133 23.0289 107.133 34.2804C107.133 45.532 97.9775 54.6859 86.7234 54.6859H35.8055C31.3981 54.6859 27.8116 58.2709 27.8116 62.6773C27.8116 67.0836 31.3975 70.6693 35.8055 70.6693H94.4676C108.352 70.6693 119.647 81.9623 119.647 95.8426C119.647 109.723 108.351 121.016 94.4676 121.016L94.4683 121.018Z"/>
</mask>
<path d="M94.4683 121.018V121.554H95.2136L94.9761 120.847L94.4683 121.018ZM94.4676 121.016V120.48H93.7224L93.9598 121.187L94.4676 121.016ZM94.4683 120.482H-2.85008V121.554H94.4683V120.482ZM-2.85008 120.482C-2.6371 120.482 -2.46429 120.655 -2.46429 120.868H-3.53571C-3.53571 121.247 -3.22858 121.554 -2.85008 121.554V120.482ZM-2.46429 120.868C-2.46429 121.081 -2.6371 121.254 -2.85008 121.254V120.182C-3.22858 120.182 -3.53571 120.489 -3.53571 120.868H-2.46429ZM-2.85008 121.254H94.4676V120.182H-2.85008V121.254ZM94.4676 121.254C108.482 121.254 119.883 109.855 119.883 95.844H118.812C118.812 109.263 107.891 120.182 94.4676 120.182V121.254ZM119.883 95.844C119.883 81.8325 108.482 70.4341 94.4676 70.4341V71.5055C107.891 71.5055 118.812 82.4244 118.812 95.844H119.883ZM94.4676 70.4341H35.8055V71.5055H94.4676V70.4341ZM35.8055 70.4341C31.5284 70.4341 28.0482 66.9545 28.0482 62.6786H26.9767C26.9767 67.5464 30.9369 71.5055 35.8055 71.5055V70.4341ZM28.0482 62.6786C28.0482 58.4028 31.5284 54.9232 35.8055 54.9232V53.8517C30.9369 53.8517 26.9767 57.8108 26.9767 62.6786H28.0482ZM35.8055 54.9232H86.7234V53.8517H35.8055V54.9232ZM86.7234 54.9232C98.1084 54.9232 107.37 45.6639 107.37 34.2811H106.299C106.299 45.0719 97.5169 53.8517 86.7234 53.8517V54.9232ZM107.37 34.2811C107.37 22.8984 98.1084 13.6391 86.7234 13.6391V14.7105C97.5169 14.7105 106.299 23.4904 106.299 34.2811H107.37ZM86.7234 13.6391H-2.78496V14.7105H86.7234V13.6391ZM-2.78496 13.6391C-2.57198 13.6391 -2.39916 13.8117 -2.39916 14.0249H-3.47059C-3.47059 14.4037 -3.16346 14.7105 -2.78496 14.7105V13.6391ZM-2.39916 14.0249C-2.39916 14.2381 -2.57196 14.4107 -2.78496 14.4107V13.3393C-3.16348 13.3393 -3.47059 13.6462 -3.47059 14.0249H-2.39916ZM-2.78496 14.4107H86.7234V13.3393H-2.78496V14.4107ZM86.7234 14.4107C97.6818 14.4107 106.598 23.3249 106.598 34.2804H107.669C107.669 22.7329 98.2733 13.3393 86.7234 13.3393V14.4107ZM106.598 34.2804C106.598 45.236 97.6818 54.1502 86.7234 54.1502V55.2216C98.2733 55.2216 107.669 45.828 107.669 34.2804H106.598ZM86.7234 54.1502H35.8055V55.2216H86.7234V54.1502ZM35.8055 54.1502C31.1025 54.1502 27.2759 57.9749 27.2759 62.6773H28.3473C28.3473 58.5669 31.6938 55.2216 35.8055 55.2216V54.1502ZM27.2759 62.6773C27.2759 67.3796 31.1017 71.2051 35.8055 71.2051V70.1336C31.6932 70.1336 28.3473 66.7877 28.3473 62.6773H27.2759ZM35.8055 71.2051H94.4676V70.1336H35.8055V71.2051ZM94.4676 71.2051C108.056 71.2051 119.111 82.2582 119.111 95.8426H120.182C120.182 81.6663 108.648 70.1336 94.4676 70.1336V71.2051ZM119.111 95.8426C119.111 109.427 108.055 120.48 94.4676 120.48V121.552C108.647 121.552 120.182 110.019 120.182 95.8426H119.111ZM93.9598 121.187L93.9605 121.189L94.9761 120.847L94.9754 120.845L93.9598 121.187Z" fill="url(#paint1_linear_8327_185696)" mask="url(#path-2-inside-1_8327_185696)"/>
<path d="M107.389 47.9439L105.044 41.7501C103.333 42.3976 102.472 44.309 103.119 46.0194C103.767 47.7298 105.678 48.5914 107.389 47.9439Z" fill="#F67C77"/>
<path d="M103.08 46.0343C102.433 44.3239 100.521 43.4623 98.8111 44.1099L101.156 50.3036C102.866 49.6561 103.728 47.7447 103.08 46.0343Z" fill="#F67C77"/>
<path fill-rule="evenodd" clip-rule="evenodd" d="M42.7115 70.9286L41.1965 70.0376L42.3132 68.0696L43.829 68.9591L43.8299 67.1786H46.0632L46.064 68.9591L47.5799 68.0696L48.6965 70.0376L47.1815 70.9286L48.6965 71.8196L47.5799 73.7876L46.064 72.8981L46.0632 74.6786H43.8299L43.829 72.8981L42.3132 73.7876L41.1965 71.8196L42.7115 70.9286Z" fill="#F2C94C"/>
<mask id="path-7-inside-2_8327_185696" fill="white">
<path d="M94.2339 107.729H-2.83233C-2.91515 107.729 -2.98235 107.662 -2.98235 107.579C-2.98235 107.496 -2.91515 107.429 -2.83233 107.429H94.2339C100.601 107.429 105.782 102.247 105.782 95.8781C105.782 89.5093 100.602 84.3274 94.2339 84.3274H35.2366C23.2742 84.3274 13.5418 74.593 13.5418 62.6282C13.5418 50.6634 23.2742 40.929 35.2366 40.929H86.8312C90.3136 40.929 93.147 38.095 93.147 34.6119C93.147 31.1288 90.3136 28.2947 86.8312 28.2947H-2.84998C-2.9328 28.2947 -3 28.2275 -3 28.1447C-3 28.0618 -2.9328 27.9946 -2.84998 27.9946H86.8305C90.4786 27.9946 93.4457 30.9631 93.4457 34.6112C93.4457 38.2593 90.4779 41.2278 86.8305 41.2278H35.2359C23.4385 41.2278 13.8411 50.8277 13.8411 62.6269C13.8411 74.426 23.4391 84.0267 35.2359 84.0267H94.2332C100.766 84.0267 106.081 89.3423 106.081 95.8767C106.081 102.411 100.766 107.727 94.2332 107.727L94.2339 107.729Z"/>
</mask>
<path d="M94.2339 107.729V108.265H94.9771L94.7421 107.559L94.2339 107.729ZM94.2332 107.727V107.191H93.49L93.7249 107.896L94.2332 107.727ZM94.2339 107.193H-2.83233V108.265H94.2339V107.193ZM-2.83233 107.193C-2.61919 107.193 -2.44664 107.366 -2.44664 107.579H-3.51806C-3.51806 107.957 -3.21111 108.265 -2.83233 108.265V107.193ZM-2.44664 107.579C-2.44664 107.792 -2.61911 107.964 -2.83233 107.964V106.893C-3.21118 106.893 -3.51806 107.2 -3.51806 107.579H-2.44664ZM-2.83233 107.964H94.2339V106.893H-2.83233V107.964ZM94.2339 107.964C100.897 107.964 106.318 102.543 106.318 95.8781H105.246C105.246 101.951 100.305 106.893 94.2339 106.893V107.964ZM106.318 95.8781C106.318 89.2136 100.898 83.7917 94.2339 83.7917V84.8632C100.306 84.8632 105.246 89.8051 105.246 95.8781H106.318ZM94.2339 83.7917H35.2366V84.8632H94.2339V83.7917ZM35.2366 83.7917C23.5702 83.7917 14.0775 74.2973 14.0775 62.6282H13.0061C13.0061 74.8888 22.9782 84.8632 35.2366 84.8632V83.7917ZM14.0775 62.6282C14.0775 50.9592 23.5702 41.4647 35.2366 41.4647V40.3933C22.9782 40.3933 13.0061 50.3677 13.0061 62.6282H14.0775ZM35.2366 41.4647H86.8312V40.3933H35.2366V41.4647ZM86.8312 41.4647C90.6096 41.4647 93.6828 38.3908 93.6828 34.6119H92.6113C92.6113 37.7992 90.0176 40.3933 86.8312 40.3933V41.4647ZM93.6828 34.6119C93.6828 30.833 90.6096 27.759 86.8312 27.759V28.8304C90.0176 28.8304 92.6113 31.4245 92.6113 34.6119H93.6828ZM86.8312 27.759H-2.84998V28.8304H86.8312V27.759ZM-2.84998 27.759C-2.63684 27.759 -2.46429 27.9317 -2.46429 28.1447H-3.53571C-3.53571 28.5233 -3.22876 28.8304 -2.84998 28.8304V27.759ZM-2.46429 28.1447C-2.46429 28.3576 -2.63682 28.5303 -2.84998 28.5303V27.4589C-3.22878 27.4589 -3.53571 27.7661 -3.53571 28.1447H-2.46429ZM-2.84998 28.5303H86.8305V27.4589H-2.84998V28.5303ZM86.8305 28.5303C90.1826 28.5303 92.91 31.2588 92.91 34.6112H93.9815C93.9815 30.6674 90.7746 27.4589 86.8305 27.4589V28.5303ZM92.91 34.6112C92.91 37.9635 90.1819 40.692 86.8305 40.692V41.7635C90.7738 41.7635 93.9815 38.5551 93.9815 34.6112H92.91ZM86.8305 40.692H35.2359V41.7635H86.8305V40.692ZM35.2359 40.692C23.1425 40.692 13.3054 50.532 13.3054 62.6269H14.3769C14.3769 51.1235 23.7345 41.7635 35.2359 41.7635V40.692ZM13.3054 62.6269C13.3054 74.7218 23.1432 84.5624 35.2359 84.5624V83.4909C23.7351 83.4909 14.3769 74.1303 14.3769 62.6269H13.3054ZM35.2359 84.5624H94.2332V83.4909H35.2359V84.5624ZM94.2332 84.5624C100.47 84.5624 105.545 89.6381 105.545 95.8767H106.617C106.617 89.0466 101.062 83.4909 94.2332 83.4909V84.5624ZM105.545 95.8767C105.545 102.115 100.47 107.191 94.2332 107.191V108.263C101.062 108.263 106.617 102.707 106.617 95.8767H105.545ZM93.7249 107.896L93.7256 107.898L94.7421 107.559L94.7414 107.557L93.7249 107.896Z" fill="url(#paint2_linear_8327_185696)" mask="url(#path-7-inside-2_8327_185696)"/>
<path d="M42.9559 8C33.5914 8 26 15.5914 26 24.9559C26 34.3204 33.5914 41.9118 42.9559 41.9118C52.3204 41.9118 59.9118 34.3204 59.9118 24.9559C59.9118 15.5914 52.3204 8 42.9559 8Z" fill="#B4F4CB"/>
<path fill-rule="evenodd" clip-rule="evenodd" d="M49.1435 20.7834C49.7957 21.3853 49.7957 22.3613 49.1435 22.9633L42.4639 29.1291C41.8118 29.731 40.7545 29.731 40.1023 29.1291L36.7625 26.0462C36.1104 25.4442 36.1104 24.4682 36.7625 23.8662C37.4147 23.2643 38.472 23.2643 39.1241 23.8662L41.2831 25.8592L46.7819 20.7834C47.4341 20.1814 48.4914 20.1814 49.1435 20.7834Z" fill="#6ACA8C"/>
<path d="M26.8006 58.2542L12.1795 65.6903C5.05859 69.3117 7.5547 80.3838 15.4914 80.3838H34.7788V63.7672L26.8 58.2542H26.8006Z" fill="black"/>
<path d="M29.7546 63.6976H23.4629V80.3838H29.7546V63.6976Z" fill="#D5D3CF"/>
<path d="M28.9782 69.714C32.0242 69.714 34.4934 67.0095 34.4934 63.6734C34.4934 60.3373 32.0242 57.6328 28.9782 57.6328C25.9322 57.6328 23.4629 60.3373 23.4629 63.6734C23.4629 67.0095 25.9322 69.714 28.9782 69.714Z" fill="#D5D3CF"/>
<path d="M27.7805 67.1077C28.176 67.47 28.6856 67.715 29.2603 67.7734C30.5418 67.9038 31.6969 67.0717 32.0149 65.8638L27.7805 67.1082V67.1077Z" fill="white"/>
<path d="M25.2874 58.993C27.5348 58.993 29.3566 57.1712 29.3566 54.9239C29.3566 52.6765 27.5348 50.8547 25.2874 50.8547C23.0401 50.8547 21.2183 52.6765 21.2183 54.9239C21.2183 57.1712 23.0401 58.993 25.2874 58.993Z" fill="black"/>
<path d="M29.1927 61.5408L34.7703 64.165C34.781 64.0105 34.7917 63.8554 34.7917 63.6975C34.7917 60.3615 32.0259 57.6334 28.9797 57.6334C25.9336 57.6334 23.2695 60.4711 23.2695 63.8071C23.2695 64.0335 23.283 64.256 23.3049 64.4757L29.1927 61.5408Z" fill="black"/>
<path d="M28.9784 69.8382C28.4054 69.8382 27.8402 69.7444 27.2986 69.5601C27.234 69.5382 27.1992 69.4675 27.2211 69.4028C27.243 69.3382 27.3138 69.3028 27.3784 69.3253C27.8941 69.5012 28.4323 69.5905 28.9784 69.5905C31.951 69.5905 34.3695 66.9365 34.3695 63.6741C34.3695 60.4117 31.951 57.7577 28.9784 57.7577C26.2014 57.7577 23.8957 60.0409 23.6154 63.0679C23.6092 63.1359 23.548 63.1853 23.4806 63.1797C23.4126 63.1735 23.362 63.1128 23.3688 63.0449C23.6615 59.8892 26.0733 57.5099 28.979 57.5099C32.0886 57.5099 34.6179 60.2751 34.6179 63.6741C34.6179 67.073 32.088 69.8382 28.979 69.8382H28.9784Z" fill="black"/>
<path d="M66.9173 62.2301C67.0229 62.9043 67.6549 63.3655 68.3291 63.2605L72.1702 62.6464L72.4196 64.2425L73.3483 64.0976C74.8314 63.8655 75.4792 62.6695 75.4663 62.6829C76.227 61.4964 75.4949 59.6256 73.9477 59.8672L67.9476 60.8189C67.2734 60.9245 66.8122 61.5565 66.9173 62.2307V62.2301Z" fill="#D5D3CF"/>
<path d="M69.375 64.3178C69.4806 64.992 70.1127 65.4532 70.7868 65.3482L72.5571 65.0661L72.8065 66.6622L73.7352 66.5173C75.2184 66.2853 75.8662 65.0892 75.8532 65.1027C76.6139 63.9161 75.8819 62.0453 74.3347 62.2869L70.4054 62.906C69.7312 63.0116 69.27 63.6436 69.375 64.3178Z" fill="#D5D3CF"/>
<path d="M63.0911 55.9751L65.6215 52.384C66.2248 51.5272 66.4698 50.4688 66.3041 49.4339L66.258 49.1468C66.1293 48.3446 66.6754 47.5906 67.4771 47.462L67.6518 47.4339C68.4541 47.3052 69.2086 47.8513 69.3373 48.653L69.6294 50.4749C69.7957 51.5109 69.5496 52.5711 68.944 53.4284L66.0035 57.5914L72.3081 56.5801L73.9031 66.5264L67.9451 67.482L59.0348 86.6863L49.6543 82.7935L60.2202 60.8589C61.041 59.1543 62.0012 57.5211 63.0911 55.9745V55.9751Z" fill="#D5D3CF"/>
<path d="M65.3205 59.993C65.4261 60.6672 66.0582 61.1284 66.7323 61.0234L71.7796 60.2161L72.0291 61.8122L72.9577 61.6672C74.4409 61.4352 75.0887 60.2391 75.0757 60.2526C75.8364 59.066 75.1044 57.1952 73.5572 57.4368L66.3514 58.5818C65.6773 58.6874 65.216 59.3194 65.3211 59.9936L65.3205 59.993Z" fill="#D5D3CF"/>
<path d="M65.9013 57.3896C66.0069 58.0638 66.639 58.525 67.3131 58.42L71.4503 57.7587L71.6997 59.3548L72.6284 59.2099C74.1116 58.9779 74.7593 57.7818 74.7464 57.7952C75.5071 56.6087 74.7751 54.7379 73.2279 54.9795L66.9322 55.9784C66.2581 56.084 65.7968 56.716 65.9019 57.3902L65.9013 57.3896Z" fill="#D5D3CF"/>
<path d="M67.194 58.5468C66.5277 58.5468 65.9563 58.0608 65.8524 57.3967C65.7366 56.6557 66.2451 55.9591 66.9855 55.8433L73.2092 54.8562C73.88 54.7517 74.4744 55.0147 74.8419 55.5776C75.2795 56.2484 75.2834 57.1872 74.8514 57.8608C74.8143 57.9181 74.7379 57.9349 74.6801 57.8984C74.6222 57.8613 74.6059 57.7849 74.6424 57.7271C75.0233 57.1332 75.0199 56.3051 74.634 55.713C74.4508 55.4321 74.0272 54.9781 73.2474 55.1006L67.0237 56.0877C66.4175 56.1827 66.0018 56.7523 66.0967 57.358C66.1838 57.9158 66.6743 58.3203 67.2378 58.2973C67.3069 58.2922 67.3636 58.3479 67.3664 58.4164C67.3692 58.4849 67.3159 58.5423 67.2473 58.5451C67.2293 58.5456 67.2114 58.5462 67.1934 58.5462L67.194 58.5468Z" fill="black"/>
<path d="M66.5429 61.1611C65.8766 61.1611 65.303 60.6802 65.199 60.0116C65.1428 59.6526 65.2299 59.2936 65.444 59.0004C65.658 58.7071 65.9738 58.5144 66.3322 58.4582L73.5379 57.3133C74.184 57.2116 74.7672 57.4565 75.1363 57.9841C75.5835 58.6223 75.6279 59.515 75.247 60.206C75.2138 60.2661 75.1385 60.2875 75.0784 60.2549C75.0183 60.2217 74.9964 60.1465 75.0295 60.0864C75.3604 59.4863 75.3206 58.6801 74.9329 58.1262C74.6155 57.6728 74.1335 57.4706 73.5761 57.5582L66.3704 58.7032C66.0766 58.7492 65.8187 58.9065 65.6434 59.1464C65.4681 59.3863 65.3973 59.6802 65.4428 59.9734C65.5344 60.5611 66.0698 60.9718 66.6597 60.9072L67.9277 60.7038C67.9946 60.692 68.0586 60.7386 68.0699 60.8066C68.0805 60.874 68.0345 60.9381 67.9671 60.9487L66.6929 61.1532C66.6423 61.1588 66.5917 61.1616 66.5423 61.1616L66.5429 61.1611Z" fill="black"/>
<path d="M68.134 63.3992C67.848 63.3992 67.5705 63.3093 67.3356 63.1374C67.0424 62.9233 66.8497 62.6076 66.7935 62.2492C66.7373 61.8902 66.8244 61.5312 67.0385 61.2379C67.2525 60.9447 67.5682 60.7519 67.9267 60.6958L73.9262 59.7446C74.5734 59.6441 75.156 59.8884 75.5251 60.4165C75.9723 61.0559 76.0161 61.9492 75.6341 62.6402C75.601 62.6997 75.5257 62.7216 75.4656 62.6885C75.4055 62.6554 75.3841 62.5801 75.4173 62.52C75.7493 61.9199 75.71 61.1132 75.3223 60.5587C75.0049 60.1047 74.5223 59.9019 73.965 59.9896L67.9654 60.9407C67.3592 61.0357 66.9435 61.6053 67.0385 62.211C67.0845 62.5042 67.2418 62.7621 67.4817 62.9374C67.7216 63.1121 68.0154 63.1835 68.3087 63.1379L70.1301 62.8469C70.1969 62.8351 70.261 62.8823 70.2722 62.9497C70.2829 63.0172 70.2368 63.0812 70.1694 63.0919L68.3475 63.3829C68.2761 63.3941 68.2048 63.3998 68.134 63.3998V63.3992Z" fill="black"/>
<path d="M59.034 86.8104C59.0182 86.8104 59.0019 86.8076 58.9868 86.8008L49.6068 82.9081C49.5754 82.8951 49.5506 82.8693 49.5383 82.8378C49.5259 82.8058 49.5276 82.7704 49.5422 82.7401L60.1082 60.8054C60.9295 59.1003 61.8986 57.4508 62.9891 55.9036L65.5195 52.3125C66.1077 51.4771 66.3431 50.4619 66.1813 49.4535L66.1352 49.1664C66.0678 48.7456 66.1684 48.3243 66.4178 47.9793C66.6673 47.6344 67.0369 47.4068 67.4572 47.3394L67.6319 47.3113C68.0527 47.2439 68.474 47.3445 68.8195 47.5939C69.1645 47.8439 69.392 48.213 69.4594 48.6332L69.7516 50.4552C69.9241 51.5299 69.6729 52.6108 69.0454 53.5002L67.3673 55.9345C67.3285 55.9907 67.2515 56.0047 67.1948 55.966C67.1386 55.9272 67.124 55.8502 67.1633 55.7935L68.842 53.3575C69.433 52.5204 69.669 51.5041 69.5072 50.494L69.2151 48.672C69.1583 48.317 68.9662 48.0051 68.6746 47.7939C68.383 47.5832 68.0268 47.4978 67.6718 47.5551L67.4971 47.5832C67.142 47.64 66.8302 47.8321 66.6195 48.1237C66.4088 48.4153 66.324 48.7715 66.3807 49.1265L66.4268 49.4136C66.5987 50.4867 66.3487 51.5664 65.7229 52.4547L63.1925 56.0457C62.1099 57.5823 61.1475 59.2194 60.3323 60.9127L49.8231 82.7294L58.9727 86.5267L67.8746 67.3797C67.892 67.342 67.9268 67.3162 67.9673 67.3094L73.7174 66.3943C75.0843 66.1808 75.7034 65.1201 75.7405 65.0538C75.7433 65.0476 75.7466 65.0414 75.75 65.0352C76.1309 64.4414 76.1276 63.6133 75.7416 63.0212C75.5584 62.7403 75.1343 62.2858 74.355 62.4088L70.4258 63.0279C69.8201 63.1228 69.4038 63.6925 69.4988 64.2982C69.5937 64.9038 70.1628 65.3195 70.769 65.2251L72.4106 64.9639C72.478 64.9527 72.5415 64.9993 72.5528 65.0667C72.5634 65.1341 72.5174 65.1976 72.45 65.2083L70.8083 65.4695C70.4494 65.5263 70.0898 65.4386 69.7965 65.2246C69.5033 65.0105 69.3106 64.6948 69.2544 64.3364C69.1387 63.5953 69.6471 62.8987 70.3876 62.783L74.3168 62.1638C74.9871 62.0588 75.582 62.3223 75.9495 62.8858C76.3871 63.5566 76.391 64.4953 75.959 65.169H75.9579C75.8337 65.4122 75.1174 66.4263 73.7562 66.6392L68.0718 67.5443L59.1475 86.739C59.1267 86.784 59.0817 86.8109 59.0351 86.8109L59.034 86.8104Z" fill="black"/>
<path d="M31.6966 75.1417L49.7846 80.6659L56.0123 67.4887L67.4653 71.4764L59.5505 90.3296C58.1556 93.6527 54.4948 95.4072 51.0307 94.4123L25.9819 87.2183L28.6241 76.8782C28.9685 75.5316 30.3646 74.7422 31.6961 75.1417H31.6966Z" fill="url(#paint3_linear_8327_185696)"/>
<path d="M13.7662 116.531C15.3342 113.44 15.1685 101.887 14.8151 98.4391L13.1162 81.8658L18.4073 75.5516H31.2514C34.8402 75.5516 37.8341 78.2506 38.2448 81.7293L38.383 82.4332C38.71 84.1029 39.7633 85.5631 41.2858 86.3226C43.0814 87.2187 44.3095 89.0772 44.296 91.2199C44.2876 92.5761 43.7825 93.8115 42.9544 94.7576C41.8196 96.0548 41.4038 97.833 41.7359 99.5246L42.0623 116.531H13.7673H13.7662Z" fill="url(#paint4_linear_8327_185696)"/>
<line x1="78.1619" y1="116.447" x2="10.9297" y2="116.447" stroke="#F1F0EE" stroke-width="0.502049"/>
<path d="M43.4912 109.232C43.4327 109.232 43.3805 109.189 43.3693 109.13L41.6131 99.5466C41.2675 97.7847 41.7338 95.9634 42.8603 94.6757C43.6979 93.7189 44.1631 92.4914 44.1715 91.2183C44.1839 89.2155 43.0867 87.3969 41.3074 86.4722C39.7085 85.6413 38.604 84.2053 38.2759 82.5328L38.1231 81.7519C37.7135 78.2827 34.7596 75.6742 31.2511 75.6742H29.8673C29.7988 75.6742 29.7432 75.6192 29.7432 75.5506C29.7432 75.4821 29.7988 75.4265 29.8673 75.4265H31.2511C34.8848 75.4265 37.9444 78.1293 38.3675 81.7137L38.5192 82.485C38.8327 84.0834 39.8905 85.4564 41.422 86.2519C43.2844 87.2199 44.4328 89.1233 44.4198 91.2194C44.4114 92.5515 43.9238 93.8369 43.0473 94.8381C41.9709 96.0684 41.526 97.8111 41.8569 99.4994L43.6131 109.084C43.6254 109.151 43.5811 109.216 43.5137 109.228C43.5063 109.23 43.4985 109.23 43.4912 109.23V109.232Z" fill="black"/>
<path d="M34.1217 95.896C34.0824 95.896 34.0436 95.8774 34.0195 95.8426C33.9807 95.7864 33.9947 95.7089 34.0509 95.6701C35.5358 94.6459 36.3959 92.9616 36.351 91.1644C36.2937 88.8627 34.7728 86.8722 32.5672 86.2109C32.5014 86.1913 32.4644 86.1222 32.484 86.0564C32.5037 85.9907 32.5728 85.9542 32.6385 85.9733C34.947 86.6654 36.5386 88.7492 36.5987 91.1582C36.6459 93.0397 35.7459 94.8027 34.1919 95.8746C34.1706 95.8892 34.1459 95.8965 34.1217 95.8965V95.896Z" fill="black"/>
<path d="M56.9549 112.204C56.9549 112.204 40.854 112.336 35.0595 112.247C32.5948 112.209 28.4616 110.737 27.0206 108.238C26.9436 108.105 26.6245 107.768 26.6245 107.768L56.9549 108.962V112.204Z" fill="black"/>
<path d="M52.5173 106.961L56.6309 107.15C56.6309 107.15 56.8466 109.502 59.377 110.045C59.9635 110.17 61.1922 110.323 62.231 110.44C63.4125 110.573 64.5704 110.862 65.676 111.298L66.9435 111.798C67.5805 112.049 68.3019 111.754 68.5794 111.128L68.639 110.994C68.9205 110.36 68.6435 109.617 68.0159 109.321L63.9709 107.414L65.4665 105.842C66.2328 105.036 67.2086 104.46 68.2845 104.178L72.6065 102.952C73.3245 102.748 73.7823 102.046 73.679 101.307L73.6616 101.18L76.0436 100.753C76.7408 100.605 77.1976 99.9343 77.0813 99.2309C76.9672 98.5405 76.338 98.0556 75.6414 98.1219L58.4916 99.745L52.8752 99.6658L52.5179 106.96L52.5173 106.961Z" fill="#D5D3CF"/>
<path d="M75.7663 97.9927C75.7208 97.9927 75.6753 97.995 75.6292 97.9994L58.4862 99.6219L52.8765 99.5427C52.8119 99.5377 52.7541 99.5939 52.7513 99.6607L52.394 106.955C52.3923 106.988 52.4041 107.02 52.426 107.045C52.4479 107.069 52.4788 107.083 52.5119 107.085L56.5238 107.27C56.6064 107.749 57.0772 109.679 59.3514 110.167C59.9565 110.296 61.2441 110.454 62.2177 110.564C63.3857 110.695 64.5341 110.981 65.6313 111.414L66.8987 111.914C67.5993 112.19 68.3881 111.867 68.6937 111.178L68.7533 111.045C69.0594 110.355 68.7533 109.531 68.0701 109.209L64.1801 107.375L65.5571 105.927C66.3083 105.137 67.2628 104.574 68.3167 104.297L72.641 103.071C73.4146 102.852 73.914 102.086 73.8022 101.29L73.8011 101.282L76.0658 100.875C76.8332 100.712 77.3309 99.9815 77.2034 99.2113C77.0871 98.5051 76.4697 97.9921 75.7669 97.9921L75.7663 97.9927ZM58.4913 99.8697C58.4952 99.8697 58.4991 99.8697 58.5031 99.8691L75.6528 98.2461C76.2826 98.1882 76.8557 98.6281 76.9585 99.2523C77.0646 99.8916 76.6512 100.498 76.0174 100.633L73.6393 101.059C73.5736 101.071 73.5292 101.132 73.5387 101.198L73.5562 101.325C73.6505 101.999 73.2275 102.648 72.5724 102.834L68.2504 104.059C67.1538 104.347 66.1594 104.934 65.3768 105.757L63.8813 107.329C63.8537 107.357 63.8419 107.398 63.8492 107.437C63.8565 107.477 63.8824 107.51 63.9183 107.527L67.9634 109.434C68.5252 109.699 68.7774 110.377 68.5257 110.945L68.4662 111.078C68.2145 111.645 67.5656 111.912 66.9886 111.683L65.7212 111.183C64.6037 110.742 63.4341 110.451 62.2447 110.318C61.2767 110.209 59.998 110.052 59.4025 109.924C56.9952 109.408 56.7626 107.232 56.7542 107.14C56.7485 107.078 56.698 107.03 56.6367 107.027L52.6473 106.843L52.9928 99.7927L58.4896 99.8703H58.4913V99.8697Z" fill="black"/>
<path d="M62.866 102.49L64.1626 102.447C64.9868 102.419 65.8014 102.63 66.5076 103.057L70.3745 105.389C70.9307 105.725 71.6532 105.552 71.9965 105.001C72.3235 104.476 72.1937 103.788 71.6976 103.419L67.6402 100.4C67.3121 100.156 66.9391 99.9803 66.5419 99.8831L64.4036 99.36L62.866 102.491V102.49Z" fill="#D5D3CF"/>
<path d="M66.3004 102.491L67.5717 102.233C68.3802 102.069 69.2184 102.143 69.9853 102.447L74.1842 104.108C74.7882 104.347 75.4719 104.057 75.7196 103.456C75.9556 102.885 75.7135 102.228 75.1635 101.946L70.6628 99.6388C70.2993 99.4523 69.9016 99.3411 69.4942 99.3107L67.2987 99.1484L66.2998 102.49L66.3004 102.491Z" fill="#D5D3CF"/>
<path d="M69.4936 99.1871C69.4295 99.1871 69.375 99.2365 69.37 99.3017C69.3649 99.3697 69.416 99.4292 69.4846 99.4343C69.8779 99.4635 70.2554 99.5691 70.606 99.7489L75.1066 102.056C75.5954 102.306 75.8145 102.901 75.6049 103.409C75.3841 103.943 74.7673 104.205 74.2296 103.993L71.0105 102.703C70.947 102.678 70.8745 102.709 70.8492 102.773C70.8239 102.836 70.8548 102.908 70.9183 102.934L74.138 104.223C74.8015 104.485 75.5622 104.163 75.8341 103.504C76.0926 102.878 75.8229 102.145 75.2195 101.836L70.7189 99.5292C70.3385 99.3343 69.9295 99.2191 69.5031 99.1876C69.4998 99.1876 69.4969 99.1876 69.4941 99.1876L69.4936 99.1871Z" fill="black"/>
<path d="M65.5137 99.6551C65.4497 99.6551 65.3957 99.7045 65.3901 99.7691C65.3845 99.8371 65.4356 99.8972 65.5036 99.9023C66.7059 99.9978 67.4744 100.255 68.1559 100.787L71.6189 103.515C72.0627 103.846 72.1801 104.468 71.8897 104.934C71.5835 105.425 70.9318 105.581 70.4368 105.283L66.5699 102.95C65.8412 102.511 65.0064 102.294 64.1569 102.323L61.503 102.612C61.435 102.62 61.3855 102.681 61.3934 102.749C61.4007 102.817 61.4625 102.865 61.5299 102.859L64.1744 102.569C64.9665 102.542 65.7547 102.747 66.4418 103.162L70.3087 105.495C70.9194 105.863 71.7228 105.67 72.0998 105.065C72.4582 104.49 72.3133 103.723 71.7694 103.319L68.3087 100.592C67.5952 100.034 66.762 99.754 65.5233 99.6551C65.5199 99.6551 65.5165 99.6551 65.5131 99.6551H65.5137Z" fill="black"/>
<path d="M62.1206 106.445C62.0734 106.445 62.029 106.472 62.0077 106.518C61.979 106.58 62.0066 106.654 62.0689 106.682L63.9673 107.552C64.0296 107.581 64.1032 107.554 64.1319 107.491C64.1605 107.429 64.133 107.355 64.0706 107.327L62.1723 106.456C62.1554 106.448 62.138 106.445 62.1206 106.445Z" fill="black"/>
<path d="M56.9556 98.5892H35.7586L22.4415 75.5517H18.4071C13.5402 75.5517 10.4969 80.8175 12.9256 85.0345L24.0011 104.263C26.6219 108.812 31.4726 111.616 36.7232 111.616H56.9556V98.5892Z" fill="url(#paint5_linear_8327_185696)"/>
<path d="M29.5437 103.444C27.6645 103.444 25.9363 104.084 24.561 105.156C27.2774 109.176 31.8263 111.617 36.7236 111.617H37.6585C37.6585 111.598 37.6596 111.579 37.6596 111.56C37.6596 107.078 34.0258 103.444 29.5437 103.444V103.444Z" fill="#7747FF"/>
<path d="M57.0799 111.74H36.7239C31.4451 111.74 26.5293 108.898 23.8944 104.324L12.8189 85.0956C11.656 83.0765 11.6577 80.6663 12.824 78.6489C13.9903 76.6314 16.0774 75.4269 18.4078 75.4269H23.009C23.0776 75.4269 23.1332 75.4825 23.1332 75.5511C23.1332 75.6196 23.0776 75.6752 23.009 75.6752H18.4078C16.1673 75.6752 14.16 76.8331 13.0386 78.7736C11.9172 80.7135 11.9156 83.031 13.0341 84.9726L24.1096 104.201C26.7001 108.698 31.5339 111.492 36.7239 111.492H56.8321V98.7127H35.6874L35.6514 98.6509L28.0007 85.4159C27.9664 85.3569 27.9866 85.281 28.0462 85.2468C28.1052 85.2125 28.181 85.2327 28.2153 85.2923L35.8306 98.4655H57.0805V111.741L57.0799 111.74Z" fill="black"/>
<rect x="88.3391" y="58.3393" width="28.9286" height="50.8929" fill="white" stroke="#26045D" stroke-width="0.535714"/>
<rect x="90.75" y="103.607" width="24.375" height="2.67857" fill="#F1F0EE"/>
<rect x="90.75" y="95.8393" width="9.91071" height="2.67857" rx="1.33929" fill="#7747FF"/>
<rect x="90.75" y="65.8393" width="24.375" height="17.9464" rx="0.816185" fill="#E4DAFF"/>
<path d="M105.531 76.0349L104.868 74.4881C104.747 74.2045 104.567 74.0454 104.363 74.0336C104.16 74.023 103.963 74.1648 103.814 74.4351L103.412 75.1567C103.328 75.309 103.208 75.3993 103.077 75.4109C102.944 75.4244 102.81 75.3538 102.703 75.2167L102.657 75.158C102.506 74.9703 102.321 74.879 102.13 74.8977C101.94 74.9163 101.777 75.0478 101.67 75.2614L101.304 75.9907C101.173 76.2545 101.186 76.5614 101.34 76.8114C101.494 77.0615 101.762 77.2105 102.058 77.2102L104.755 77.2083C105.039 77.2077 105.303 77.0664 105.459 76.8301C105.618 76.5931 105.644 76.2954 105.532 76.0361L105.531 76.0349Z" fill="#F1EDFF"/>
<path d="M102.35 74.2534C102.743 74.2531 103.065 73.933 103.063 73.5381C103.062 73.1431 102.743 72.823 102.348 72.8243C101.953 72.8256 101.633 73.1447 101.634 73.5397C101.636 73.9347 101.955 74.2547 102.35 74.2534Z" fill="#F1EDFF"/>
<path d="M93.1678 62.3571C93.3313 62.2128 93.4286 62.0043 93.4286 61.7852C93.4286 61.3621 93.0779 61.0179 92.6469 61.0179C92.4356 61.0179 92.2351 61.1018 92.0892 61.2473C91.9434 61.1018 91.7429 61.0179 91.5317 61.0179C91.1007 61.0179 90.75 61.3621 90.75 61.7852C90.75 62.0043 90.8473 62.2128 91.0108 62.3571C90.8473 62.5014 90.75 62.71 90.75 62.929C90.75 63.3521 91.1007 63.6964 91.5317 63.6964C91.7429 63.6964 91.9435 63.6124 92.0892 63.4668C92.2351 63.6124 92.4356 63.6964 92.6469 63.6964C93.0779 63.6964 93.4286 63.3521 93.4286 62.929C93.4286 62.7099 93.3313 62.5014 93.1678 62.3571Z" fill="#F1F0EE"/>
<rect x="90.75" y="85.9286" width="11.0185" height="1.02023" fill="#D5D3CF"/>
<rect x="95.0356" y="62.0893" width="11.0185" height="1.02023" fill="#D5D3CF"/>
<rect x="90.75" y="89.3974" width="17.752" height="0.612139" fill="#D5D3CF"/>
<rect x="90.75" y="90.8256" width="17.752" height="0.408093" fill="#D5D3CF"/>
<rect x="90.75" y="92.0498" width="17.752" height="0.612139" fill="#D5D3CF"/>
<rect x="90.75" y="93.4781" width="9.79422" height="0.408093" fill="#D5D3CF"/>
<path d="M86.3095 17.6304L84.6851 14.7799C84.6216 14.6688 84.623 14.5337 84.6884 14.4261L86.3238 11.7317C86.4638 11.5008 86.2948 11.2013 86.0202 11.1944L82.7273 11.1119C82.6003 11.1086 82.4826 11.1727 82.4184 11.28L80.5989 14.3203C80.5339 14.429 80.5339 14.565 80.5989 14.676L82.4818 17.8888C82.5452 17.9969 82.661 18.0652 82.7861 18.0684L85.9984 18.1505C86.272 18.1574 86.445 17.8683 86.3095 17.6304Z" fill="#C898FF"/>
</g>
<defs>
<linearGradient id="paint0_linear_8327_185696" x1="64.7347" y1="-0.225189" x2="64.7347" y2="121.897" gradientUnits="userSpaceOnUse">
<stop stop-color="#7747FF"/>
<stop offset="1" stop-color="#926CFF"/>
</linearGradient>
<linearGradient id="paint1_linear_8327_185696" x1="54.0536" y1="43.0715" x2="40.3929" y2="22.4465" gradientUnits="userSpaceOnUse">
<stop stop-color="white"/>
<stop offset="0.79214" stop-color="white" stop-opacity="0"/>
</linearGradient>
<linearGradient id="paint2_linear_8327_185696" x1="77.8929" y1="32.0893" x2="64.3777" y2="14.0479" gradientUnits="userSpaceOnUse">
<stop stop-color="white"/>
<stop offset="1" stop-color="white" stop-opacity="0"/>
</linearGradient>
<linearGradient id="paint3_linear_8327_185696" x1="42.0534" y1="71.5281" x2="42.8131" y2="94.8173" gradientUnits="userSpaceOnUse">
<stop stop-color="#C2F5FD"/>
<stop offset="1" stop-color="#7CA1FA"/>
</linearGradient>
<linearGradient id="paint4_linear_8327_185696" x1="25.1959" y1="81.637" x2="27.4826" y2="116.611" gradientUnits="userSpaceOnUse">
<stop stop-color="#C2F5FD"/>
<stop offset="1" stop-color="#7CA1FA"/>
</linearGradient>
<linearGradient id="paint5_linear_8327_185696" x1="29.4608" y1="80.9073" x2="30.6945" y2="111.769" gradientUnits="userSpaceOnUse">
<stop stop-color="#C2F5FD"/>
<stop offset="1" stop-color="#7CA1FA"/>
</linearGradient>
<clipPath id="clip0_8327_185696">
<rect width="129" height="126" fill="white"/>
</clipPath>
</defs>
</svg>
